<svg width="27" height="27" viewBox="0 0 27 27" fill="none" xmlns="http://www.w3.org/2000/svg">
<g opacity="0.2">
<path d="M15.6912 15.0717L15.6912 15.0717C15.5366 14.9172 15.327 14.8304 15.1084 14.8304H11.2627C11.0441 14.8304 10.8345 14.9172 10.6799 15.0717L11.0559 15.4477L10.6799 15.0717C10.5254 15.2263 10.4386 15.4359 10.4386 15.6544V21.6978C10.4386 22.0621 10.2939 22.4115 10.0363 22.669C9.7787 22.9266 9.42934 23.0713 9.06507 23.0713H5.21928C5.03891 23.0713 4.86031 23.0358 4.69367 22.9668L4.48489 23.4708L4.69367 22.9668C4.52703 22.8977 4.37561 22.7966 4.24807 22.669C4.12053 22.5415 4.01936 22.3901 3.95034 22.2234L3.44276 22.4337L3.95034 22.2234C3.88131 22.0568 3.84579 21.8782 3.84579 21.6978V10.9263C3.84579 10.3602 4.09598 9.82245 4.52982 9.45621L11.9464 3.20214C11.9464 3.20211 11.9464 3.20208 11.9465 3.20205C12.2932 2.90985 12.7321 2.74959 13.1856 2.74959C13.639 2.74959 14.0779 2.90985 14.4246 3.20205C14.4247 3.20208 14.4247 3.20211 14.4248 3.20214L21.8413 9.45621C22.2751 9.82245 22.5253 10.3602 22.5253 10.9263V21.6978C22.5253 22.0621 22.3806 22.4115 22.123 22.669C21.8655 22.9266 21.5161 23.0713 21.1518 23.0713H17.306C16.9418 23.0713 16.5924 22.9266 16.3348 22.669C16.0773 22.4115 15.9325 22.0621 15.9325 21.6978V15.6544C15.9325 15.4359 15.8457 15.2263 15.6912 15.0717ZM14.0704 3.62236L14.0701 3.62206C13.8225 3.41363 13.5092 3.29933 13.1856 3.29933C12.8619 3.29933 12.5486 3.41363 12.301 3.62206L12.3007 3.62233L4.88415 9.87531C4.73117 10.0041 4.60816 10.1647 4.52371 10.346C4.43925 10.5272 4.39539 10.7247 4.39518 10.9247V10.9252V21.6967C4.39518 22.1518 4.76422 22.5208 5.21928 22.5208H9.06507C9.28364 22.5208 9.49325 22.434 9.64779 22.2795C9.80235 22.1249 9.88917 21.9153 9.88917 21.6967V15.6533C9.88917 14.8944 10.5044 14.2799 11.2627 14.2799H15.1084C15.8667 14.2799 16.4819 14.8944 16.4819 15.6533V21.6967C16.4819 22.1518 16.851 22.5208 17.306 22.5208H21.1518C21.3704 22.5208 21.58 22.434 21.7346 22.2795C21.8891 22.1249 21.9759 21.9153 21.9759 21.6967V10.9263V10.9258C21.9757 10.7258 21.9319 10.5283 21.8474 10.3471C21.7629 10.1658 21.6399 10.0052 21.487 9.87641L14.0704 3.62236Z" fill="black" stroke="#3A49F9" stroke-width="1.0988"/>
</g>
</svg>
