<svg width="27" height="27" viewBox="0 0 27 27" fill="none" xmlns="http://www.w3.org/2000/svg">
<g opacity="0.2">
<path d="M17.6775 4.39526C20.0674 4.40845 21.3617 4.51503 22.2056 5.35891C23.1715 6.32475 23.1715 7.87845 23.1715 10.9858V17.5786C23.1715 20.6871 23.1715 22.2408 22.2056 23.2067C21.2409 24.1714 19.6861 24.1714 16.5787 24.1714H9.98591C6.87851 24.1714 5.32371 24.1714 4.35897 23.2067C3.39313 22.2397 3.39313 20.6871 3.39313 17.5786V10.9858C3.39313 7.87845 3.39313 6.32475 4.35897 5.35891C5.20285 4.51503 6.49723 4.40845 8.88711 4.39526" stroke="#3A49F9" stroke-width="1.64819"/>
<path d="M9.9859 14.7238L11.8692 16.4819L16.5787 12.0867" stroke="#3A49F9" stroke-width="1.64819" stroke-linecap="round" stroke-linejoin="round"/>
<path d="M8.88708 3.8457C8.88708 3.40858 9.06073 2.98935 9.36983 2.68025C9.67893 2.37116 10.0982 2.19751 10.5353 2.19751H16.0293C16.4664 2.19751 16.8856 2.37116 17.1947 2.68025C17.5038 2.98935 17.6775 3.40858 17.6775 3.8457V4.9445C17.6775 5.38163 17.5038 5.80085 17.1947 6.10995C16.8856 6.41905 16.4664 6.5927 16.0293 6.5927H10.5353C10.0982 6.5927 9.67893 6.41905 9.36983 6.10995C9.06073 5.80085 8.88708 5.38163 8.88708 4.9445V3.8457Z" stroke="#3A49F9" stroke-width="1.64819"/>
</g>
</svg>
