<svg width="47" height="47" viewBox="0 0 47 47" fill="none" xmlns="http://www.w3.org/2000/svg">
<rect width="47" height="47" rx="23.5" fill="#364DE7"/>
<path d="M13.7253 37.1717C12.96 37.1717 12.3397 36.5513 12.3397 35.7861V27.3291C12.3397 26.5639 12.96 25.9436 13.7253 25.9436H17.248C18.467 25.9436 19.5364 26.1789 20.456 26.6494C21.3756 27.1199 22.0921 27.7722 22.6054 28.6063C23.1187 29.4403 23.3753 30.4241 23.3753 31.5576C23.3753 32.6804 23.1187 33.6642 22.6054 34.509C22.0921 35.3431 21.3756 35.9954 20.456 36.4659C19.5364 36.9364 18.467 37.1717 17.248 37.1717H13.7253ZM14.4249 35.0292C14.4249 35.238 14.5942 35.4072 14.803 35.4072H17.1517C17.9965 35.4072 18.7237 35.2468 19.3332 34.926C19.9534 34.6052 20.4293 34.1561 20.7608 33.5787C21.1029 33.0012 21.274 32.3276 21.274 31.5576C21.274 30.777 21.1029 30.1033 20.7608 29.5366C20.4293 28.9591 19.9534 28.51 19.3332 28.1892C18.7237 27.8684 17.9965 27.708 17.1517 27.708H14.803C14.5942 27.708 14.4249 27.8773 14.4249 28.0861V35.0292Z" fill="white"/>
<path d="M21.2187 30.6207C21.2187 30.6207 21.0214 29.7328 20.5281 29.1409C20.0348 28.549 20.0467 28.6585 19.7448 28.3571C19.4429 28.0557 22.0338 27.7482 22.0338 27.7482L22.7602 29.3532L22.618 30.0989L21.2187 30.6207Z" fill="url(#paint0_linear_407_1079)" fill-opacity="0.35"/>
<path d="M23.7855 29.6968C22.91 29.6476 22.0788 29.4778 21.2918 29.1873C20.5055 28.8861 19.8885 28.5248 19.4409 28.1034L20.2523 26.5264C20.681 26.9039 21.2197 27.2286 21.8685 27.5007C22.5172 27.7727 23.1886 27.9282 23.8826 27.9672C24.4698 28.0001 24.9485 27.9627 25.3187 27.855C25.6889 27.7472 25.9654 27.5914 26.1482 27.3874C26.3316 27.1728 26.4311 26.9267 26.4467 26.6491C26.4658 26.3075 26.3583 26.0283 26.1242 25.8117C25.8906 25.5844 25.5796 25.4009 25.1911 25.2613C24.814 25.1116 24.3882 24.9699 23.9137 24.8362C23.4499 24.703 22.9817 24.5536 22.5091 24.3878C22.0477 24.212 21.6258 24.0009 21.2433 23.7545C20.8721 23.498 20.5746 23.1707 20.3506 22.7726C20.1266 22.3745 20.0314 21.8764 20.0649 21.2786C20.0991 20.67 20.2904 20.1238 20.6389 19.64C20.9986 19.1461 21.5178 18.7682 22.1966 18.5064C22.8866 18.2346 23.744 18.1274 24.769 18.1849C25.4416 18.2227 26.1041 18.3456 26.7565 18.5535C27.4088 18.7615 27.9716 19.0394 28.4447 19.3873L27.6973 20.9679C27.2123 20.6408 26.7068 20.3929 26.1807 20.2241C25.6553 20.0447 25.147 19.9412 24.6559 19.9136C24.0794 19.8813 23.6057 19.9243 23.2349 20.0427C22.8748 20.1618 22.603 20.3286 22.4196 20.5432C22.2469 20.7584 22.1524 21.0102 22.1362 21.2984C22.1171 21.6401 22.2189 21.9243 22.4418 22.151C22.676 22.3676 22.982 22.5454 23.3597 22.6845C23.7482 22.8241 24.1793 22.9661 24.6532 23.1105C25.1276 23.2442 25.5959 23.3937 26.0578 23.5588C26.5305 23.7246 26.9527 23.9304 27.3245 24.1761C27.7069 24.4225 28.0048 24.7445 28.2181 25.142C28.4421 25.5402 28.5376 26.0328 28.5047 26.62C28.4711 27.2179 28.2745 27.7638 27.9147 28.2577C27.5663 28.7416 27.047 29.1194 26.357 29.3913C25.6676 29.6525 24.8104 29.7543 23.7855 29.6968Z" fill="white"/>
<g style="mix-blend-mode:multiply">
<path d="M24.7207 18.1823L26.0146 18.314L27.1327 18.8668L26.6933 20.4151L25.2711 19.9851L24.3324 19.8734L24.7207 18.1823Z" fill="url(#paint1_linear_407_1079)" fill-opacity="0.4"/>
</g>
<path d="M30.1808 21.4519C29.3039 21.4519 28.4966 21.3129 27.7587 21.0349C27.0316 20.7462 26.3953 20.3452 25.85 19.8319C25.3046 19.3079 24.8822 18.693 24.5828 17.9873C24.2834 17.2815 24.1337 16.5116 24.1337 15.6775C24.1337 14.8434 24.2834 14.0735 24.5828 13.3677C24.8822 12.662 25.3046 12.0524 25.85 11.5392C26.406 11.0152 27.053 10.6142 27.7908 10.3362C28.5286 10.0474 29.336 9.90308 30.2129 9.90308C31.1646 9.90308 32.02 10.0581 32.7793 10.3682C33.2568 10.5606 33.687 10.8084 34.0699 11.1118C34.4653 11.4251 34.4374 12.0075 34.0762 12.3598C33.7041 12.7229 33.1156 12.7062 32.6814 12.4203C32.4551 12.2713 32.2204 12.1487 31.9773 12.0524C31.4747 11.8386 30.9186 11.7316 30.3091 11.7316C29.721 11.7316 29.1756 11.8279 28.673 12.0204C28.1704 12.2128 27.7373 12.4855 27.3738 12.8384C27.0102 13.1913 26.7268 13.6083 26.5236 14.0895C26.3312 14.5707 26.2349 15.1001 26.2349 15.6775C26.2349 16.2443 26.3312 16.7682 26.5236 17.2494C26.7268 17.7306 27.0102 18.153 27.3738 18.5166C27.7373 18.8695 28.1651 19.1422 28.657 19.3346C29.1489 19.5271 29.6942 19.6234 30.2931 19.6234C30.8491 19.6234 31.3838 19.5378 31.8971 19.3667C32.421 19.1849 32.9183 18.8855 33.3888 18.4685L34.5758 20.0244C33.9876 20.4949 33.3032 20.8531 32.5226 21.099C31.7527 21.3343 30.9721 21.4519 30.1808 21.4519ZM32.6028 19.7517V16.5356C32.6028 15.9908 33.0445 15.5492 33.5893 15.5492C34.1341 15.5492 34.5758 15.9908 34.5758 16.5356V20.0244L32.6028 19.7517Z" fill="white"/>
<path d="M31.5566 17.5266C30.9706 17.5266 30.4956 17.0516 30.4956 16.4656C30.4956 15.8796 30.9706 15.4045 31.5566 15.4045L33.6516 15.4045C34.1658 15.4045 34.5826 15.8213 34.5826 16.3355L34.5826 16.4656L34.5826 17.5266L31.5566 17.5266Z" fill="#91E8A5"/>
<defs>
<linearGradient id="paint0_linear_407_1079" x1="21.7688" y1="28.815" x2="22.3435" y2="29.9796" gradientUnits="userSpaceOnUse">
<stop/>
<stop offset="1" stop-color="#D9D9D9" stop-opacity="0"/>
</linearGradient>
<linearGradient id="paint1_linear_407_1079" x1="26.5457" y1="19.7689" x2="24.5726" y2="19.4729" gradientUnits="userSpaceOnUse">
<stop/>
<stop offset="1" stop-opacity="0"/>
</linearGradient>
</defs>
</svg>
