<svg width="28" height="25" viewBox="0 0 28 25" fill="none" xmlns="http://www.w3.org/2000/svg">
<path d="M22.6603 24.9801H5.66692C2.85144 24.9801 0.639282 22.9436 0.639282 20.3517V4.70793C0.639282 2.11606 2.85144 0.0795898 5.66692 0.0795898H22.6603C25.4758 0.0795898 27.688 2.11606 27.688 4.70793V20.3517C27.688 22.9436 25.3753 24.9801 22.6603 24.9801Z" fill="white" fill-opacity="0.2"/>
<path fill-rule="evenodd" clip-rule="evenodd" d="M8.13587 3.41598C7.98905 3.45514 7.86272 3.49255 7.85509 3.49912C7.8377 3.51409 8.46092 5.77765 8.49738 5.83199C8.5169 5.86107 8.59527 5.8558 8.78761 5.81249C8.93252 5.77989 9.06565 5.74115 9.08346 5.72643C9.10763 5.70648 8.61727 3.83169 8.47515 3.40066C8.45108 3.32771 8.47007 3.32683 8.13587 3.41598ZM17.7353 3.46393C17.6006 3.55083 17.5789 3.61742 17.4786 4.25246C17.4264 4.58303 17.3659 4.88423 17.344 4.92181C17.2762 5.0386 17.132 5.10422 17.0013 5.07777C16.9046 5.0582 16.8037 4.95638 16.4451 4.51625C15.982 3.94796 15.8797 3.86861 15.694 3.93366C15.638 3.95326 15.3732 4.12165 15.1055 4.30789L14.6186 4.64653L14.2724 4.62644C13.2654 4.5681 12.1662 4.78465 11.2153 5.22885C10.6111 5.51101 10.1472 5.82215 9.66122 6.27109C8.65174 7.20353 8.05911 8.32246 7.8819 9.63043C7.83713 9.96082 7.83034 9.97793 7.74408 9.97793C7.69417 9.97793 7.60646 10.0214 7.54918 10.0745C7.46117 10.1562 7.4278 10.2487 7.33396 10.6717C7.27283 10.947 7.20888 11.1722 7.19175 11.1722C7.17467 11.1722 6.95967 11.0423 6.71398 10.8836C6.07169 10.4686 6.12336 10.4591 5.40744 11.1226C4.926 11.5688 4.8373 11.6675 4.8373 11.7568C4.8373 11.8319 4.93126 11.9888 5.16144 12.2983C5.33971 12.5379 5.48557 12.7427 5.48557 12.7532C5.48557 12.7638 5.24106 12.8185 4.94217 12.8748C4.48304 12.9612 4.38252 12.9919 4.29389 13.073L4.18903 13.1689V13.8593V14.5497L4.29389 14.6457C4.38233 14.7266 4.48239 14.7574 4.93263 14.8421C5.22626 14.8974 5.47394 14.9481 5.48306 14.9548C5.49213 14.9615 5.34848 15.1713 5.16384 15.4211C4.86293 15.8281 4.83051 15.8874 4.85179 15.9918C4.87009 16.0816 5.00032 16.2231 5.42048 16.6094C6.12675 17.2588 6.07135 17.2485 6.70368 16.8474C6.96463 16.6819 7.18821 16.5464 7.20053 16.5464C7.2128 16.5464 7.27283 16.7716 7.33396 17.0469C7.4278 17.4699 7.46117 17.5624 7.54918 17.6441L7.65333 17.7407H8.40281H9.15229L9.25643 17.6441C9.34444 17.5624 9.37781 17.4699 9.47166 17.0469C9.53279 16.7717 9.59281 16.5464 9.60509 16.5464C9.6174 16.5464 9.84098 16.6819 10.1019 16.8474C10.6958 17.2242 10.7149 17.2244 11.1137 16.8595L11.3881 16.6083L11.4031 17.1657C11.4159 17.6423 11.43 17.7472 11.5001 17.8894C11.6071 18.1063 11.7498 18.276 11.9101 18.3773L12.0393 18.4588L12.0515 19.4257L12.0636 20.3927L12.1705 20.6034C12.3093 20.8773 12.5315 21.0831 12.8219 21.2064C13.0504 21.3035 13.0714 21.3058 13.8541 21.3177C14.7269 21.3309 15.0171 21.2998 15.2669 21.166C15.4965 21.043 15.7043 20.8366 15.8155 20.621C15.9144 20.4292 15.9152 20.4207 15.9277 19.4443L15.9403 18.4608L16.0909 18.3638C16.1737 18.3104 16.2931 18.1919 16.3561 18.1003C16.5551 17.8114 16.5825 17.6617 16.5825 16.8636C16.5825 15.6985 16.6953 15.4562 17.4741 14.9487C17.987 14.6145 18.0868 14.5306 18.0465 14.467C18.0278 14.4376 17.9344 14.3341 17.839 14.237L17.6654 14.0605L17.5339 14.162C17.4616 14.2179 17.2425 14.369 17.0471 14.498C16.4925 14.8638 16.2148 15.1873 16.0422 15.6683C15.9704 15.8683 15.9574 16.0057 15.9377 16.7776L15.9152 17.6586L15.8083 17.7875C15.6073 18.03 15.6469 18.0251 13.9603 18.0141L12.445 18.0041L12.3205 17.9223C12.0779 17.7629 12.066 17.7119 12.0413 16.722C12.0163 15.7166 11.9883 15.5887 11.7045 15.1862C11.5183 14.9221 11.3428 14.7666 10.9006 14.4743C10.4261 14.1606 10.1845 13.9665 9.86501 13.6425C9.19557 12.9637 8.73564 12.0939 8.53078 11.1195C8.45181 10.7439 8.46371 9.68582 8.55111 9.31054C8.90312 7.79937 9.86901 6.57264 11.2681 5.85977C11.9983 5.48779 12.7491 5.28318 13.6176 5.21957C13.9002 5.19888 13.9131 5.20117 13.9131 5.27194C13.9131 5.37788 13.9526 5.43609 14.3941 5.98057C14.8036 6.48553 14.859 6.60826 14.7413 6.74943C14.6233 6.89099 14.556 6.89443 13.8166 6.79657C13.0388 6.69365 12.9349 6.70243 12.8478 6.87848C12.7793 7.01698 12.5219 8.74952 12.5531 8.86223C12.5969 9.02061 12.7246 9.06487 13.398 9.15501C13.7462 9.20162 14.0736 9.2496 14.1255 9.26161C14.3195 9.30643 14.3992 9.56741 14.265 9.71838C14.2288 9.75916 13.957 9.95949 13.6609 10.1636C13.1198 10.5366 13.0742 10.581 13.0742 10.7348C13.0742 10.8295 14.2796 12.3379 14.4044 12.3994C14.5692 12.4806 14.6673 12.4393 15.2359 12.0489C15.5466 11.8356 15.8386 11.6523 15.8849 11.6415C16.0111 11.6122 16.1751 11.6757 16.2377 11.778C16.2873 11.859 16.2838 11.9336 16.2057 12.4602C16.1575 12.7854 16.1239 13.1131 16.131 13.1884C16.1528 13.4195 16.2236 13.4446 17.2339 13.5797C18.2938 13.7215 18.4601 13.7281 18.5645 13.6319C18.6575 13.5462 18.6597 13.5375 18.7735 12.8055C18.8587 12.2581 18.8747 12.2018 18.9659 12.1294C19.0651 12.0507 19.1887 12.0302 19.3088 12.0727C19.3436 12.085 19.5529 12.3181 19.7739 12.5908C19.9949 12.8635 20.21 13.1142 20.2519 13.148C20.4296 13.2914 20.5285 13.2477 21.4254 12.6292C22.2729 12.0447 22.3704 11.9534 22.3249 11.7865C22.3139 11.7461 22.1178 11.4838 21.8892 11.2035C21.6605 10.9233 21.4622 10.6614 21.4485 10.6216C21.4135 10.5201 21.4806 10.3787 21.597 10.3084C21.6907 10.2519 21.7328 10.2536 22.4172 10.3413C23.1553 10.4359 23.261 10.4329 23.3678 10.3144C23.4126 10.2647 23.7101 8.55924 23.7126 8.33777C23.7131 8.29538 23.6749 8.21958 23.6277 8.16935C23.5485 8.08501 23.4851 8.07029 22.8039 7.97809C22.3491 7.91655 22.0453 7.85922 22.0122 7.82873C21.9238 7.74728 21.8853 7.57246 21.9353 7.47916C21.9598 7.43354 22.2112 7.2349 22.4939 7.03774C23.0668 6.63829 23.1796 6.53538 23.1796 6.41205C23.1796 6.35792 22.9723 6.0714 22.6029 5.61491C21.8756 4.71633 21.8683 4.70909 21.6877 4.70909C21.5652 4.70909 21.4637 4.7647 20.9798 5.09695C20.6691 5.31023 20.3776 5.49345 20.332 5.50402C20.201 5.5344 20.0386 5.44265 19.9928 5.31241C19.9609 5.22193 19.9711 5.07542 20.0394 4.64544C20.1493 3.95228 20.1496 3.89211 20.0431 3.77812C19.9618 3.69105 19.9033 3.67903 18.9277 3.54889C18.3614 3.47334 17.8805 3.41106 17.8589 3.4105C17.8374 3.4099 17.7817 3.43396 17.7353 3.46393ZM19.4328 4.23184C19.4412 4.23957 19.4194 4.42521 19.3844 4.64436C19.2936 5.21202 19.3001 5.39811 19.4184 5.61305C19.6539 6.04133 20.2335 6.22743 20.6814 6.01861C20.7446 5.98914 20.9814 5.83845 21.2076 5.68372C21.4338 5.52899 21.6241 5.40841 21.6305 5.41578C21.7843 5.59299 22.3478 6.30204 22.36 6.33372C22.3694 6.35838 22.2173 6.48511 22.0121 6.62344C21.4107 7.02899 21.2638 7.22229 21.2635 7.60825C21.2633 7.96562 21.4888 8.28284 21.8388 8.41754C21.9142 8.44659 22.2071 8.50163 22.4896 8.53985C22.772 8.5781 23.0079 8.61379 23.0138 8.6192C23.0196 8.62457 22.9825 8.88113 22.9312 9.18929C22.88 9.49748 22.8377 9.75881 22.8372 9.77009C22.8368 9.78136 22.6176 9.76053 22.3502 9.72379C22.0828 9.68705 21.7761 9.66461 21.6687 9.67395C21.0936 9.7239 20.6992 10.2177 20.8169 10.7402C20.8514 10.8932 20.9252 11.0106 21.1998 11.3497C21.3868 11.5807 21.5399 11.7756 21.5399 11.7828C21.5399 11.79 21.3099 11.9549 21.0288 12.1493L20.5178 12.5027L20.1803 12.0931C19.7446 11.5641 19.5936 11.4704 19.1786 11.4716C18.8325 11.4726 18.6455 11.5491 18.4347 11.776C18.2723 11.9506 18.2079 12.1406 18.143 12.6366C18.1172 12.8335 18.0836 13.0131 18.0684 13.0358C18.0476 13.0668 17.8882 13.0572 17.426 12.9971C16.7178 12.9051 16.7797 12.9674 16.8685 12.4367C16.9543 11.9242 16.9443 11.74 16.8192 11.5193C16.6297 11.1853 16.2711 11.0048 15.8718 11.0424C15.6216 11.066 15.5117 11.1199 15.0252 11.4573L14.6272 11.7333L14.2511 11.2711C14.0442 11.0169 13.875 10.7979 13.875 10.7845C13.875 10.7711 14.0633 10.629 14.2935 10.4688C14.5236 10.3086 14.7557 10.1194 14.8092 10.0483C15.131 9.62056 14.9917 9.02736 14.5081 8.76631C14.3821 8.69834 14.2124 8.65938 13.7943 8.60241C13.4926 8.56128 13.2406 8.5238 13.2342 8.51913C13.2154 8.50525 13.3885 7.39852 13.4137 7.37147C13.4264 7.35788 13.6684 7.37821 13.9514 7.41668C14.6376 7.5099 14.879 7.46705 15.1683 7.20065C15.3443 7.03851 15.4097 6.89791 15.4298 6.63847C15.4531 6.33969 15.3857 6.19691 15.0005 5.72844C14.84 5.53321 14.7141 5.3593 14.7208 5.34198C14.7326 5.31167 15.6876 4.63884 15.7189 4.63884C15.7273 4.63884 15.8824 4.82051 16.0634 5.0425C16.2444 5.26453 16.4568 5.48463 16.5352 5.53166C16.9403 5.77442 17.4182 5.72085 17.7728 5.39295C17.9445 5.23408 18.0076 5.06305 18.0895 4.53346C18.1238 4.31129 18.1576 4.11224 18.1646 4.09109C18.1733 4.0645 18.3679 4.07806 18.7974 4.13521C19.1385 4.18063 19.4245 4.22411 19.4328 4.23184ZM5.23503 5.22003C5.13707 5.34648 5.06328 5.45453 5.07102 5.46011C5.20727 5.55801 7.2647 6.89791 7.29548 6.9088C7.33403 6.92242 7.71998 6.47257 7.69035 6.44854C7.60177 6.37671 5.46574 4.9901 5.44366 4.9901C5.42689 4.9901 5.333 5.09358 5.23503 5.22003ZM17.5879 6.23681C16.7995 6.39473 16.1507 6.86436 15.8047 7.52757C15.6028 7.91448 15.541 8.16485 15.5421 8.59047C15.5438 9.22982 15.7952 9.78045 16.2981 10.2463C16.5552 10.4845 16.6667 10.5586 16.9664 10.6907C17.4386 10.8989 17.6573 10.9443 18.165 10.9399C18.5061 10.9369 18.6416 10.9191 18.8896 10.8447C19.5981 10.6322 20.1302 10.2021 20.457 9.57757C20.9397 8.65538 20.6866 7.49522 19.8504 6.79762C19.564 6.55859 19.0333 6.3085 18.6608 6.23688C18.3345 6.17418 17.9007 6.17414 17.5879 6.23681ZM11.3288 6.90412C10.4183 7.51432 9.77551 8.43567 9.55174 9.45104C9.19717 11.0599 9.91409 12.7226 11.3772 13.6849C11.545 13.7953 11.9401 14.0004 12.2552 14.1407C12.7802 14.3745 12.8492 14.4165 13.0813 14.6431C13.3729 14.9278 13.5559 15.2471 13.6141 15.5728C13.689 15.992 13.6451 15.9493 14.0011 15.9493H14.3165L14.2902 15.7122C14.2543 15.3889 14.2228 15.2675 14.1052 14.9997C13.9711 14.6943 13.7681 14.4188 13.4998 14.178C13.2075 13.9158 13.0686 13.8324 12.5441 13.6046C11.9735 13.3567 11.6599 13.1677 11.308 12.8598C10.6632 12.2957 10.2407 11.5096 10.1359 10.6793C9.97994 9.4436 10.569 8.17033 11.6346 7.44C11.7762 7.34298 11.892 7.25088 11.892 7.23532C11.892 7.20965 11.5881 6.74637 11.5713 6.74637C11.5673 6.74637 11.4582 6.81736 11.3288 6.90412ZM18.5768 6.8338C19.2667 6.99931 19.8169 7.50172 20.0007 8.13383C20.1694 8.71425 19.9636 9.38135 19.4776 9.82903C18.7151 10.5313 17.5204 10.527 16.752 9.81923C15.9854 9.1131 15.9912 8.00931 16.7651 7.31179C17.2694 6.85723 17.9386 6.68069 18.5768 6.8338ZM5.80296 8.19854C5.12811 8.35614 4.56541 8.495 4.55248 8.50708C4.52655 8.53135 4.64118 8.99546 4.68408 9.0399C4.70437 9.0609 6.97927 8.56567 7.22649 8.48646C7.28408 8.46798 7.13421 7.90415 7.07293 7.90875C7.04932 7.91054 6.47781 8.04096 5.80296 8.19854ZM8.09308 11.8723C8.1271 11.9772 8.15494 12.0665 8.15494 12.0708C8.15494 12.075 8.06486 12.0978 7.95473 12.1214C7.17501 12.2885 6.54779 12.9455 6.45623 13.6909C6.3792 14.3179 6.76248 15.0391 7.34574 15.3647C8.27075 15.881 9.41057 15.6604 10.0046 14.8501L10.128 14.6816L10.2378 14.764C10.2982 14.8094 10.4616 14.9203 10.6009 15.0105C10.9023 15.2058 11.1295 15.4347 11.2433 15.6576L11.3263 15.8202L10.9813 16.1378L10.6364 16.4555L10.2516 16.2157C10.0399 16.0838 9.80178 15.9608 9.72239 15.9422C9.45434 15.8795 9.15347 16.0143 9.01756 16.2577C8.98827 16.3103 8.92459 16.5311 8.87608 16.7484L8.78784 17.1435H8.40037H8.01285L7.94867 16.8459C7.81059 16.2054 7.6971 16.0343 7.35405 15.9492C7.13246 15.8943 6.98297 15.9442 6.54657 16.2187L6.16962 16.4559L5.87675 16.1861L5.58388 15.9163L5.84315 15.5666C5.98577 15.3743 6.11741 15.1565 6.13572 15.0826C6.20882 14.7874 6.00248 14.4787 5.67163 14.3882C5.56817 14.3599 5.33811 14.3101 5.16041 14.2776L4.8373 14.2185V13.8594V13.5003L5.266 13.4217C5.50182 13.3784 5.74 13.3214 5.79533 13.295C6.04053 13.1783 6.19639 12.8808 6.13728 12.6424C6.11985 12.572 5.9918 12.3609 5.85276 12.1733C5.71373 11.9858 5.59997 11.8217 5.59997 11.8087C5.59997 11.7957 5.72791 11.6681 5.88426 11.525L6.16851 11.2649L6.57002 11.5154C7.00273 11.7854 7.14493 11.8308 7.37667 11.7729C7.63178 11.7093 7.80861 11.5125 7.86932 11.2249C7.89864 11.086 7.89975 11.0879 7.96511 11.3829C8.00145 11.5472 8.05907 11.7674 8.09308 11.8723ZM8.52201 12.867C8.74395 13.2705 8.99121 13.5994 9.40958 14.0478L9.61824 14.2714L9.52832 14.4276C9.40469 14.6422 9.10946 14.8768 8.84905 14.9673C8.67302 15.0284 8.57353 15.04 8.32654 15.0279C7.81581 15.0028 7.45705 14.7777 7.23077 14.3404C7.12426 14.1345 7.11739 14.0974 7.13345 13.8135C7.14569 13.5966 7.17498 13.4614 7.2345 13.3472C7.42776 12.9762 7.87259 12.6942 8.27822 12.6856C8.41272 12.6828 8.42618 12.6928 8.52201 12.867ZM20.1671 14.7726V15.0711H21.292H22.417V14.7726V14.474H21.292H20.1671V14.7726ZM19.8246 16.2503C19.7122 16.3778 19.6374 16.4925 19.6563 16.5079C19.6751 16.5233 20.1096 16.8571 20.6219 17.2498L21.5533 17.9637L21.7554 17.7556C21.8666 17.6411 21.9579 17.536 21.9584 17.5221C21.9591 17.5027 20.4304 16.3115 20.0872 16.0639C20.0359 16.0269 19.9971 16.0544 19.8246 16.2503ZM13.6843 16.9855V17.4245H14.0085H14.3326V16.9855V16.5464H14.0085H13.6843V16.9855ZM18.2222 17.8798V18.9349H18.547H18.8717L18.8616 17.89L18.8515 16.845L18.5369 16.8348L18.2222 16.8246V17.8798ZM15.2859 18.9174V19.216H13.9894H12.6929V18.9408C12.6929 18.7895 12.7043 18.6551 12.7183 18.6422C12.7322 18.6294 13.3157 18.6188 14.0148 18.6188H15.2859V18.9174ZM15.2859 20.0303C15.2859 20.3007 15.1873 20.5002 14.9939 20.621C14.8561 20.707 14.8368 20.709 14.0305 20.7185C13.1049 20.7295 13.0449 20.7173 12.8353 20.4756C12.7499 20.3771 12.7197 20.2992 12.7036 20.1355C12.6691 19.7846 12.5538 19.8131 14.0073 19.8131H15.2859V20.0303Z" fill="white"/>
</svg>
