<svg width="31" height="36" viewBox="0 0 31 36" fill="none" xmlns="http://www.w3.org/2000/svg">
<path d="M20.1042 4.39526C22.4941 4.40845 23.7884 4.51503 24.6323 5.35891C25.5982 6.32475 25.5982 7.87845 25.5982 10.9858V17.5786C25.5982 20.6871 25.5982 22.2408 24.6323 23.2067C23.6676 24.1714 22.1128 24.1714 19.0054 24.1714H12.4126C9.30521 24.1714 7.75041 24.1714 6.78567 23.2067C5.81982 22.2397 5.81982 20.6871 5.81982 17.5786V10.9858C5.81982 7.87845 5.81982 6.32475 6.78567 5.35891C7.62954 4.51503 8.92392 4.40845 11.3138 4.39526" stroke="#3A49F9" stroke-width="1.64819"/>
<path d="M12.4126 14.7238L14.296 16.4819L19.0054 12.0867" stroke="#3A49F9" stroke-width="1.64819" stroke-linecap="round" stroke-linejoin="round"/>
<path d="M11.3138 3.8457C11.3138 3.40858 11.4875 2.98935 11.7966 2.68025C12.1057 2.37116 12.5249 2.19751 12.962 2.19751H18.456C18.8931 2.19751 19.3123 2.37116 19.6214 2.68025C19.9305 2.98935 20.1042 3.40858 20.1042 3.8457V4.9445C20.1042 5.38163 19.9305 5.80085 19.6214 6.10995C19.3123 6.41905 18.8931 6.5927 18.456 6.5927H12.962C12.5249 6.5927 12.1057 6.41905 11.7966 6.10995C11.4875 5.80085 11.3138 5.38163 11.3138 4.9445V3.8457Z" stroke="#3A49F9" stroke-width="1.64819"/>
<path d="M1.95016 34.3972H29.4679" stroke="#91E8A5" stroke-width="2.29314" stroke-linecap="round"/>
</svg>
