<svg width="21" height="22" viewBox="0 0 21 22" fill="none" xmlns="http://www.w3.org/2000/svg">
<path d="M12.6912 13.0717L12.6912 13.0717C12.5366 12.9172 12.327 12.8304 12.1084 12.8304H8.26266C8.0441 12.8304 7.83449 12.9172 7.67994 13.0717L8.05589 13.4477L7.67994 13.0717C7.52539 13.2263 7.43856 13.4359 7.43856 13.6544V19.6978C7.43856 20.0621 7.29386 20.4115 7.03628 20.669C6.7787 20.9266 6.42934 21.0713 6.06507 21.0713H2.21928C2.03891 21.0713 1.86031 21.0358 1.69367 20.9668L1.48489 21.4708L1.69367 20.9668C1.52703 20.8977 1.37561 20.7966 1.24807 20.669C1.12053 20.5415 1.01936 20.3901 0.950337 20.2234L0.442758 20.4337L0.950336 20.2234C0.881312 20.0568 0.845785 19.8782 0.845785 19.6978V8.92633C0.845785 8.36019 1.09598 7.82245 1.52982 7.45621L8.94636 1.20214C8.9464 1.20211 8.94643 1.20208 8.94647 1.20205C9.29323 0.909849 9.7321 0.749594 10.1856 0.749594C10.639 0.749594 11.0779 0.909848 11.4246 1.20205C11.4247 1.20208 11.4247 1.20211 11.4248 1.20214L18.8413 7.45621C19.2751 7.82245 19.5253 8.36019 19.5253 8.92633V19.6978C19.5253 20.0621 19.3806 20.4115 19.123 20.669C18.8655 20.9266 18.5161 21.0713 18.1518 21.0713H14.306C13.9418 21.0713 13.5924 20.9266 13.3348 20.669C13.0773 20.4115 12.9325 20.0621 12.9325 19.6978V13.6544C12.9325 13.4359 12.8457 13.2263 12.6912 13.0717ZM11.0704 1.62236L11.0701 1.62206C10.8225 1.41363 10.5092 1.29933 10.1856 1.29933C9.8619 1.29933 9.54863 1.41363 9.30103 1.62206L9.3007 1.62233L1.88415 7.87531C1.73117 8.00409 1.60816 8.16471 1.52371 8.34596C1.43925 8.5272 1.39539 8.72471 1.39518 8.92466V8.92523V19.6967C1.39518 20.1518 1.76422 20.5208 2.21928 20.5208H6.06507C6.28364 20.5208 6.49325 20.434 6.64779 20.2795C6.80235 20.1249 6.88917 19.9153 6.88917 19.6967V13.6533C6.88917 12.8944 7.50444 12.2799 8.26266 12.2799H12.1084C12.8667 12.2799 13.4819 12.8944 13.4819 13.6533V19.6967C13.4819 20.1518 13.851 20.5208 14.306 20.5208H18.1518C18.3704 20.5208 18.58 20.434 18.7346 20.2795C18.8891 20.1249 18.9759 19.9153 18.9759 19.6967V8.92633V8.92576C18.9757 8.7258 18.9319 8.5283 18.8474 8.34706C18.7629 8.16581 18.6399 8.00519 18.487 7.87641L11.0704 1.62236Z" fill="black" stroke="#3A49F9" stroke-width="1.0988"/>
</svg>
