<svg width="9" height="9" viewBox="0 0 9 9" fill="none" xmlns="http://www.w3.org/2000/svg">
<path d="M7.69819 4.66416H4.83176V7.53059C4.83176 7.84589 4.57379 8.10387 4.25848 8.10387C3.94317 8.10387 3.68519 7.84589 3.68519 7.53059V4.66416H0.818769C0.503462 4.66416 0.245483 4.40618 0.245483 4.09088C0.245483 3.77557 0.503462 3.51759 0.818769 3.51759H3.68519V0.651166C3.68519 0.335859 3.94317 0.0778809 4.25848 0.0778809C4.57379 0.0778809 4.83176 0.335859 4.83176 0.651166V3.51759H7.69819C8.0135 3.51759 8.27147 3.77557 8.27147 4.09088C8.27147 4.40618 8.0135 4.66416 7.69819 4.66416Z" fill="white"/>
</svg>
