<svg width="29" height="29" viewBox="0 0 29 29" fill="none" xmlns="http://www.w3.org/2000/svg">
<g opacity="0.2">
<path d="M21.1152 11.7045C21.1152 9.84193 20.3753 8.05567 19.0582 6.73865C17.7412 5.42163 15.955 4.68173 14.0924 4.68173C12.2299 4.68173 10.4436 5.42163 9.12658 6.73865C7.80956 8.05567 7.06967 9.84193 7.06967 11.7045V21.0681H21.1152V11.7045ZM23.4561 21.8488L23.9242 22.4727C23.9895 22.5596 24.0292 22.663 24.0389 22.7713C24.0487 22.8795 24.0281 22.9883 23.9795 23.0855C23.9309 23.1828 23.8562 23.2645 23.7637 23.3216C23.6713 23.3788 23.5648 23.409 23.4561 23.409H4.72875C4.62007 23.409 4.51353 23.3788 4.42108 23.3216C4.32863 23.2645 4.25391 23.1828 4.20531 23.0855C4.1567 22.9883 4.13613 22.8795 4.14589 22.7713C4.15565 22.663 4.19536 22.5596 4.26057 22.4727L4.72875 21.8488V11.7045C4.72875 9.22108 5.71528 6.8394 7.4713 5.08337C9.22733 3.32735 11.609 2.34082 14.0924 2.34082C16.5758 2.34082 18.9575 3.32735 20.7135 5.08337C22.4695 6.8394 23.4561 9.22108 23.4561 11.7045V21.8488ZM11.1663 24.5795H17.0186C17.0186 25.3556 16.7103 26.0998 16.1615 26.6486C15.6127 27.1974 14.8685 27.5056 14.0924 27.5056C13.3163 27.5056 12.5721 27.1974 12.0233 26.6486C11.4746 26.0998 11.1663 25.3556 11.1663 24.5795Z" fill="#3A49F9"/>
</g>
</svg>
