<svg width="23" height="23" viewBox="0 0 23 23" fill="none" xmlns="http://www.w3.org/2000/svg">
<mask id="path-1-inside-1_462_64" fill="white">
<path d="M11.8144 13.7542C12.0318 13.7542 12.2442 13.6897 12.4249 13.569C12.6056 13.4482 12.7464 13.2766 12.8296 13.0759C12.9128 12.8751 12.9345 12.6541 12.8921 12.441C12.8497 12.2279 12.7451 12.0321 12.5914 11.8784C12.4377 11.7247 12.2419 11.6201 12.0288 11.5777C11.8157 11.5353 11.5947 11.557 11.3939 11.6402C11.1932 11.7234 11.0216 11.8642 10.9008 12.0449C10.7801 12.2256 10.7156 12.438 10.7156 12.6554C10.7156 12.9468 10.8314 13.2263 11.0375 13.4323C11.2435 13.6384 11.523 13.7542 11.8144 13.7542ZM17.3084 13.7542C17.5257 13.7542 17.7382 13.6897 17.9189 13.569C18.0996 13.4482 18.2404 13.2766 18.3236 13.0759C18.4067 12.8751 18.4285 12.6541 18.3861 12.441C18.3437 12.2279 18.2391 12.0321 18.0854 11.8784C17.9317 11.7247 17.7359 11.6201 17.5228 11.5777C17.3096 11.5353 17.0887 11.557 16.8879 11.6402C16.6871 11.7234 16.5155 11.8642 16.3948 12.0449C16.2741 12.2256 16.2096 12.438 16.2096 12.6554C16.2096 12.9468 16.3254 13.2263 16.5315 13.4323C16.7375 13.6384 17.017 13.7542 17.3084 13.7542ZM11.8144 18.1493C12.0318 18.1493 12.2442 18.0849 12.4249 17.9642C12.6056 17.8434 12.7464 17.6718 12.8296 17.471C12.9128 17.2703 12.9345 17.0493 12.8921 16.8362C12.8497 16.623 12.7451 16.4273 12.5914 16.2736C12.4377 16.1199 12.2419 16.0153 12.0288 15.9729C11.8157 15.9305 11.5947 15.9522 11.3939 16.0354C11.1932 16.1186 11.0216 16.2594 10.9008 16.4401C10.7801 16.6208 10.7156 16.8332 10.7156 17.0506C10.7156 17.342 10.8314 17.6215 11.0375 17.8275C11.2435 18.0336 11.523 18.1493 11.8144 18.1493ZM17.3084 18.1493C17.5257 18.1493 17.7382 18.0849 17.9189 17.9642C18.0996 17.8434 18.2404 17.6718 18.3236 17.471C18.4067 17.2703 18.4285 17.0493 18.3861 16.8362C18.3437 16.623 18.2391 16.4273 18.0854 16.2736C17.9317 16.1199 17.7359 16.0153 17.5228 15.9729C17.3096 15.9305 17.0887 15.9522 16.8879 16.0354C16.6871 16.1186 16.5155 16.2594 16.3948 16.4401C16.2741 16.6208 16.2096 16.8332 16.2096 17.0506C16.2096 17.342 16.3254 17.6215 16.5315 17.8275C16.7375 18.0336 17.017 18.1493 17.3084 18.1493ZM6.32045 13.7542C6.53777 13.7542 6.75022 13.6897 6.93091 13.569C7.11161 13.4482 7.25244 13.2766 7.33561 13.0759C7.41877 12.8751 7.44053 12.6541 7.39814 12.441C7.35574 12.2279 7.25109 12.0321 7.09742 11.8784C6.94375 11.7247 6.74796 11.6201 6.53482 11.5777C6.32167 11.5353 6.10074 11.557 5.89996 11.6402C5.69918 11.7234 5.52757 11.8642 5.40684 12.0449C5.2861 12.2256 5.22166 12.438 5.22166 12.6554C5.22166 12.9468 5.33742 13.2263 5.54349 13.4323C5.74955 13.6384 6.02903 13.7542 6.32045 13.7542ZM19.506 2.7662H18.4072V1.6674C18.4072 1.37598 18.2915 1.0965 18.0854 0.890434C17.8793 0.684369 17.5998 0.568604 17.3084 0.568604C17.017 0.568604 16.7375 0.684369 16.5315 0.890434C16.3254 1.0965 16.2096 1.37598 16.2096 1.6674V2.7662H7.41925V1.6674C7.41925 1.37598 7.30348 1.0965 7.09742 0.890434C6.89135 0.684369 6.61187 0.568604 6.32045 0.568604C6.02903 0.568604 5.74955 0.684369 5.54349 0.890434C5.33742 1.0965 5.22166 1.37598 5.22166 1.6674V2.7662H4.12286C3.2486 2.7662 2.41015 3.11349 1.79196 3.73169C1.17377 4.34988 0.826469 5.18833 0.826469 6.06259V19.2481C0.826469 20.1224 1.17377 20.9609 1.79196 21.579C2.41015 22.1972 3.2486 22.5445 4.12286 22.5445H19.506C20.3803 22.5445 21.2187 22.1972 21.8369 21.579C22.4551 20.9609 22.8024 20.1224 22.8024 19.2481V6.06259C22.8024 5.18833 22.4551 4.34988 21.8369 3.73169C21.2187 3.11349 20.3803 2.7662 19.506 2.7662ZM20.6048 19.2481C20.6048 19.5396 20.489 19.819 20.283 20.0251C20.0769 20.2312 19.7974 20.3469 19.506 20.3469H4.12286C3.83144 20.3469 3.55196 20.2312 3.34589 20.0251C3.13983 19.819 3.02406 19.5396 3.02406 19.2481V9.35898H20.6048V19.2481ZM20.6048 7.16138H3.02406V6.06259C3.02406 5.77117 3.13983 5.49168 3.34589 5.28562C3.55196 5.07956 3.83144 4.96379 4.12286 4.96379H19.506C19.7974 4.96379 20.0769 5.07956 20.283 5.28562C20.489 5.49168 20.6048 5.77117 20.6048 6.06259V7.16138ZM6.32045 18.1493C6.53777 18.1493 6.75022 18.0849 6.93091 17.9642C7.11161 17.8434 7.25244 17.6718 7.33561 17.471C7.41877 17.2703 7.44053 17.0493 7.39814 16.8362C7.35574 16.623 7.25109 16.4273 7.09742 16.2736C6.94375 16.1199 6.74796 16.0153 6.53482 15.9729C6.32167 15.9305 6.10074 15.9522 5.89996 16.0354C5.69918 16.1186 5.52757 16.2594 5.40684 16.4401C5.2861 16.6208 5.22166 16.8332 5.22166 17.0506C5.22166 17.342 5.33742 17.6215 5.54349 17.8275C5.74955 18.0336 6.02903 18.1493 6.32045 18.1493Z"/>
</mask>
<path d="M11.8144 13.7542C12.0318 13.7542 12.2442 13.6897 12.4249 13.569C12.6056 13.4482 12.7464 13.2766 12.8296 13.0759C12.9128 12.8751 12.9345 12.6541 12.8921 12.441C12.8497 12.2279 12.7451 12.0321 12.5914 11.8784C12.4377 11.7247 12.2419 11.6201 12.0288 11.5777C11.8157 11.5353 11.5947 11.557 11.3939 11.6402C11.1932 11.7234 11.0216 11.8642 10.9008 12.0449C10.7801 12.2256 10.7156 12.438 10.7156 12.6554C10.7156 12.9468 10.8314 13.2263 11.0375 13.4323C11.2435 13.6384 11.523 13.7542 11.8144 13.7542ZM17.3084 13.7542C17.5257 13.7542 17.7382 13.6897 17.9189 13.569C18.0996 13.4482 18.2404 13.2766 18.3236 13.0759C18.4067 12.8751 18.4285 12.6541 18.3861 12.441C18.3437 12.2279 18.2391 12.0321 18.0854 11.8784C17.9317 11.7247 17.7359 11.6201 17.5228 11.5777C17.3096 11.5353 17.0887 11.557 16.8879 11.6402C16.6871 11.7234 16.5155 11.8642 16.3948 12.0449C16.2741 12.2256 16.2096 12.438 16.2096 12.6554C16.2096 12.9468 16.3254 13.2263 16.5315 13.4323C16.7375 13.6384 17.017 13.7542 17.3084 13.7542ZM11.8144 18.1493C12.0318 18.1493 12.2442 18.0849 12.4249 17.9642C12.6056 17.8434 12.7464 17.6718 12.8296 17.471C12.9128 17.2703 12.9345 17.0493 12.8921 16.8362C12.8497 16.623 12.7451 16.4273 12.5914 16.2736C12.4377 16.1199 12.2419 16.0153 12.0288 15.9729C11.8157 15.9305 11.5947 15.9522 11.3939 16.0354C11.1932 16.1186 11.0216 16.2594 10.9008 16.4401C10.7801 16.6208 10.7156 16.8332 10.7156 17.0506C10.7156 17.342 10.8314 17.6215 11.0375 17.8275C11.2435 18.0336 11.523 18.1493 11.8144 18.1493ZM17.3084 18.1493C17.5257 18.1493 17.7382 18.0849 17.9189 17.9642C18.0996 17.8434 18.2404 17.6718 18.3236 17.471C18.4067 17.2703 18.4285 17.0493 18.3861 16.8362C18.3437 16.623 18.2391 16.4273 18.0854 16.2736C17.9317 16.1199 17.7359 16.0153 17.5228 15.9729C17.3096 15.9305 17.0887 15.9522 16.8879 16.0354C16.6871 16.1186 16.5155 16.2594 16.3948 16.4401C16.2741 16.6208 16.2096 16.8332 16.2096 17.0506C16.2096 17.342 16.3254 17.6215 16.5315 17.8275C16.7375 18.0336 17.017 18.1493 17.3084 18.1493ZM6.32045 13.7542C6.53777 13.7542 6.75022 13.6897 6.93091 13.569C7.11161 13.4482 7.25244 13.2766 7.33561 13.0759C7.41877 12.8751 7.44053 12.6541 7.39814 12.441C7.35574 12.2279 7.25109 12.0321 7.09742 11.8784C6.94375 11.7247 6.74796 11.6201 6.53482 11.5777C6.32167 11.5353 6.10074 11.557 5.89996 11.6402C5.69918 11.7234 5.52757 11.8642 5.40684 12.0449C5.2861 12.2256 5.22166 12.438 5.22166 12.6554C5.22166 12.9468 5.33742 13.2263 5.54349 13.4323C5.74955 13.6384 6.02903 13.7542 6.32045 13.7542ZM19.506 2.7662H18.4072V1.6674C18.4072 1.37598 18.2915 1.0965 18.0854 0.890434C17.8793 0.684369 17.5998 0.568604 17.3084 0.568604C17.017 0.568604 16.7375 0.684369 16.5315 0.890434C16.3254 1.0965 16.2096 1.37598 16.2096 1.6674V2.7662H7.41925V1.6674C7.41925 1.37598 7.30348 1.0965 7.09742 0.890434C6.89135 0.684369 6.61187 0.568604 6.32045 0.568604C6.02903 0.568604 5.74955 0.684369 5.54349 0.890434C5.33742 1.0965 5.22166 1.37598 5.22166 1.6674V2.7662H4.12286C3.2486 2.7662 2.41015 3.11349 1.79196 3.73169C1.17377 4.34988 0.826469 5.18833 0.826469 6.06259V19.2481C0.826469 20.1224 1.17377 20.9609 1.79196 21.579C2.41015 22.1972 3.2486 22.5445 4.12286 22.5445H19.506C20.3803 22.5445 21.2187 22.1972 21.8369 21.579C22.4551 20.9609 22.8024 20.1224 22.8024 19.2481V6.06259C22.8024 5.18833 22.4551 4.34988 21.8369 3.73169C21.2187 3.11349 20.3803 2.7662 19.506 2.7662ZM20.6048 19.2481C20.6048 19.5396 20.489 19.819 20.283 20.0251C20.0769 20.2312 19.7974 20.3469 19.506 20.3469H4.12286C3.83144 20.3469 3.55196 20.2312 3.34589 20.0251C3.13983 19.819 3.02406 19.5396 3.02406 19.2481V9.35898H20.6048V19.2481ZM20.6048 7.16138H3.02406V6.06259C3.02406 5.77117 3.13983 5.49168 3.34589 5.28562C3.55196 5.07956 3.83144 4.96379 4.12286 4.96379H19.506C19.7974 4.96379 20.0769 5.07956 20.283 5.28562C20.489 5.49168 20.6048 5.77117 20.6048 6.06259V7.16138ZM6.32045 18.1493C6.53777 18.1493 6.75022 18.0849 6.93091 17.9642C7.11161 17.8434 7.25244 17.6718 7.33561 17.471C7.41877 17.2703 7.44053 17.0493 7.39814 16.8362C7.35574 16.623 7.25109 16.4273 7.09742 16.2736C6.94375 16.1199 6.74796 16.0153 6.53482 15.9729C6.32167 15.9305 6.10074 15.9522 5.89996 16.0354C5.69918 16.1186 5.52757 16.2594 5.40684 16.4401C5.2861 16.6208 5.22166 16.8332 5.22166 17.0506C5.22166 17.342 5.33742 17.6215 5.54349 17.8275C5.74955 18.0336 6.02903 18.1493 6.32045 18.1493Z" fill="black" stroke="white" stroke-width="2.19759" mask="url(#path-1-inside-1_462_64)"/>
</svg>
