<svg width="36" height="36" viewBox="0 0 36 36" fill="none" xmlns="http://www.w3.org/2000/svg">
<rect width="36" height="36" rx="18" fill="#3A49F9"/>
<path d="M20.6667 12.6667C22.1167 12.6747 22.902 12.7394 23.414 13.2514C24 13.8374 24 14.7801 24 16.6654V20.6654C24 22.5514 24 23.4941 23.414 24.0801C22.8287 24.6654 21.8853 24.6654 20 24.6654H16C14.1147 24.6654 13.1713 24.6654 12.586 24.0801C12 23.4934 12 22.5514 12 20.6654V16.6654C12 14.7801 12 13.8374 12.586 13.2514C13.098 12.7394 13.8833 12.6747 15.3333 12.6667" stroke="#6FEA8B"/>
<path d="M16 18.9333L17.1427 19.9999L20 17.3333" stroke="#6FEA8B" stroke-linecap="round" stroke-linejoin="round"/>
<path d="M15.3334 12.3333C15.3334 12.068 15.4387 11.8137 15.6263 11.6261C15.8138 11.4386 16.0682 11.3333 16.3334 11.3333H19.6667C19.9319 11.3333 20.1863 11.4386 20.3738 11.6261C20.5614 11.8137 20.6667 12.068 20.6667 12.3333V12.9999C20.6667 13.2651 20.5614 13.5195 20.3738 13.707C20.1863 13.8946 19.9319 13.9999 19.6667 13.9999H16.3334C16.0682 13.9999 15.8138 13.8946 15.6263 13.707C15.4387 13.5195 15.3334 13.2651 15.3334 12.9999V12.3333Z" stroke="#6FEA8B"/>
</svg>
