<svg width="13" height="8" viewBox="0 0 13 8" fill="none" xmlns="http://www.w3.org/2000/svg">
<path d="M6.81718 6.90505V6.90504H6.81444C6.73851 6.90504 6.66543 6.89116 6.59168 6.86174C6.51352 6.83056 6.46575 6.79603 6.43532 6.76535L6.43532 6.76535L6.43376 6.76379L1.3793 1.70933C1.29095 1.62098 1.23804 1.50915 1.23804 1.32865C1.23804 1.14815 1.29095 1.03632 1.3793 0.947976C1.46764 0.859631 1.57947 0.806723 1.75997 0.806723C1.94047 0.806723 2.0523 0.859631 2.14065 0.947976L6.42595 5.23328L6.81444 5.62177L7.20292 5.23328L11.4882 0.947976L11.1052 0.564934L11.4882 0.947976C11.5766 0.859631 11.6884 0.806723 11.8689 0.806723C12.0494 0.806723 12.1612 0.85963 12.2496 0.947977C12.3379 1.03632 12.3908 1.14815 12.3908 1.32865C12.3908 1.50915 12.3379 1.62098 12.2496 1.70933L7.19511 6.76379C7.13437 6.82453 7.08247 6.85425 7.04039 6.86939C6.97717 6.89215 6.90419 6.90549 6.81718 6.90505Z" fill="#3A49F9" stroke="white" stroke-width="1.0988"/>
</svg>
