<svg width="31" height="36" viewBox="0 0 31 36" fill="none" xmlns="http://www.w3.org/2000/svg">
<path d="M14.1656 2.78205C14.6115 2.40628 15.1758 2.2002 15.7589 2.2002C16.3419 2.2002 16.9063 2.40628 17.3521 2.78205L24.769 9.0364C25.3261 9.50668 25.648 10.1978 25.648 10.9263V21.6978C25.648 22.2078 25.4454 22.6969 25.0848 23.0575C24.7242 23.4181 24.2351 23.6207 23.7251 23.6207H19.8793C19.3694 23.6207 18.8803 23.4181 18.5197 23.0575C18.159 22.6969 17.9565 22.2078 17.9565 21.6978V15.6544C17.9565 15.5816 17.9275 15.5117 17.876 15.4602C17.8245 15.4087 17.7546 15.3797 17.6818 15.3797H13.836C13.7631 15.3797 13.6932 15.4087 13.6417 15.4602C13.5902 15.5117 13.5613 15.5816 13.5613 15.6544V21.6978C13.5613 22.2078 13.3587 22.6969 12.9981 23.0575C12.6375 23.4181 12.1484 23.6207 11.6384 23.6207H7.79258C7.54007 23.6207 7.29002 23.571 7.05672 23.4743C6.82343 23.3777 6.61145 23.2361 6.43289 23.0575C6.25434 22.879 6.1127 22.667 6.01606 22.4337C5.91943 22.2004 5.86969 21.9503 5.86969 21.6978V10.9263C5.86969 10.1978 6.19164 9.50668 6.74873 9.0364L14.1656 2.78205ZM16.2896 4.04237C16.141 3.9173 15.9531 3.84872 15.7589 3.84872C15.5647 3.84872 15.3767 3.9173 15.2281 4.04237L7.81126 10.2956C7.71948 10.3729 7.64567 10.4693 7.595 10.578C7.54433 10.6868 7.51801 10.8053 7.51788 10.9252V21.6967C7.51788 21.8484 7.64095 21.9714 7.79258 21.9714H11.6384C11.7112 21.9714 11.7811 21.9425 11.8326 21.891C11.8841 21.8395 11.9131 21.7696 11.9131 21.6967V15.6533C11.9131 14.5908 12.7745 13.7305 13.836 13.7305H17.6818C18.7432 13.7305 19.6046 14.5908 19.6046 15.6533V21.6967C19.6046 21.8484 19.7277 21.9714 19.8793 21.9714H23.7251C23.798 21.9714 23.8679 21.9425 23.9194 21.891C23.9709 21.8395 23.9998 21.7696 23.9998 21.6967V10.9263C23.9997 10.8064 23.9734 10.6878 23.9227 10.5791C23.872 10.4704 23.7982 10.374 23.7065 10.2967L16.2896 4.04237Z" fill="#3A49F9"/>
<path d="M2 34.3972H29.5177" stroke="#91E8A5" stroke-width="2.29314" stroke-linecap="round"/>
</svg>
